<?xml version="1.0" encoding="utf-8"?>
<!-- Generator: Adobe Illustrator 23.0.4, SVG Export Plug-In . SVG Version: 6.00 Build 0)  -->
<svg version="1.1" id="Layer_1" xmlns="http://www.w3.org/2000/svg" xmlns:xlink="http://www.w3.org/1999/xlink" x="0px" y="0px"
	 viewBox="0 0 179 39" style="enable-background:new 0 0 179 39;" xml:space="preserve">
<style type="text/css">
	.st0{fill:#084E87;}
	.st1{enable-background:new    ;}
</style>
<title>Group 2</title>
<desc>Created with Sketch.</desc>
<g id="Symbols">
	<g id="Header" transform="translate(0.000000, -25.000000)">
		<g id="Group-2" transform="translate(0.000000, 23.000000)">
			<g id="Dicerna_logo_RGB" transform="translate(0.000000, 2.000000)">
				<g id="Group">
					<path id="Shape" class="st0" d="M27.1,7.2c-0.2-4.5-4.3-7-6.8-7.1C17.7-0.1,0,0.1,0,0.1v37.5c0,0,13.6,0.7,20.1,0
						c6.6-0.7,7-5.6,7-5.6S27.3,11.7,27.1,7.2z M21.7,29c-0.3,3.9-3.3,3.3-3.3,3.3H5.5V5.6c0,0,9-0.1,12.6,0s3.7,2.3,3.7,2.3
						S22,25.1,21.7,29z"/>
					<rect id="Rectangle" x="33.7" y="9.6" class="st0" width="4.6" height="28.3"/>
					<path id="Path" class="st0" d="M32.9,3.8c0-1.7,1.4-3.1,3.1-3.1s3.1,1.4,3.1,3.1S37.7,6.9,36,6.9S32.9,5.5,32.9,3.8z"/>
					<path class="st0" d="M63.6,14.3V9.6H51.3c0,0-6.1,0.6-6.3,6.1s0,17.2,0,17.2s0.9,4.8,6.3,5c5.4,0.2,12.4,0,12.4,0v-4.7h-12
						c0,0-1.9-0.4-2.1-3.2c-0.2-2.8,0-13.2,0-13.2s0-2.4,2.7-2.5C54.9,14.2,63.6,14.3,63.6,14.3z"/>
					<path class="st0" d="M75.4,33.1c0,0-2-0.3-2-1.8s0-2.9,0-2.9s17.3-7.7,18.1-8.1c0.7-0.4,0.2-5.3,0.2-5.3s-0.6-5.4-5.1-5.5
						s-12.3,0-12.3,0S69,9.7,69,17.4s-0.1,12.8,0,14.8c0.1,1.9,1.2,5.3,5.1,5.6c4.5,0.3,18.6,0.1,18.6,0.1v-4.7L75.4,33.1z
						 M73.6,16.1c0,0,0.2-1.6,2.4-1.7c2.1-0.1,10.2,0,10.8,0c0.7,0,1,2.6,0,3.1c-1.4,0.6-13.2,6-13.2,6V16.1z"/>
					<path class="st0" d="M98.4,38h4.7V16.3c0,0,0.3-1.7,2.1-1.7h2.8V10h-5.3c0,0-4.2-0.1-4.3,4.8C98.2,19.7,98.4,38,98.4,38z"/>
					<path class="st0" d="M112,38h4.7V16.5c0,0,0.2-1.8,1.8-1.8s10.5,0,10.5,0s1.8,0.7,1.6,2.3c-0.2,1.6,0,21.1,0,21.1h4.6V15.4
						c0,0,0.1-5.4-6.1-5.5c-6.2-0.1-12.1,0-12.1,0s-5.1,0.3-5.1,5.8C112,21.2,112,38,112,38z"/>
					<path class="st0" d="M165.3,32.3c0,0,0-13.1,0-17.2s-4.7-5.1-4.7-5.1h-19v4.4c0,0,12.6-0.1,15.8,0c3.2,0.1,3.1,1.4,3.1,1.4v3
						c0,0-8.2-0.2-13.7-0.1c-4.5,0.1-4.9,6.2-4.9,6.2s0,5.1,0,7.4c0,5.1,5.5,5.7,5.5,5.7s4.1,0,9.6,0
						C165.5,37.9,165.3,32.3,165.3,32.3z M158.5,33.3c-2.6,0-8.9,0-8.9,0s-3.3,0.6-3.2-3.1c0.1-3.9-0.9-7.2,2.6-7.2c0,0,7.7,0,9.2,0
						s2.4,0.1,2.4,2.3s0,6,0,6S161,33.4,158.5,33.3z"/>
				</g>
				<g>
					<path class="st0" d="M27.1,7.2c-0.2-4.5-4.3-7-6.8-7.1C17.7-0.1,0,0.1,0,0.1v37.5c0,0,13.6,0.7,20.1,0c6.6-0.7,7-5.6,7-5.6
						S27.3,11.7,27.1,7.2z M21.7,29c-0.3,3.9-3.3,3.3-3.3,3.3H5.5V5.6c0,0,9-0.1,12.6,0s3.7,2.3,3.7,2.3S22,25.1,21.7,29z"/>
					<rect x="33.7" y="9.6" class="st0" width="4.6" height="28.3"/>
					<path class="st0" d="M32.9,3.8c0-1.7,1.4-3.1,3.1-3.1s3.1,1.4,3.1,3.1S37.7,6.9,36,6.9S32.9,5.5,32.9,3.8z"/>
					<path class="st0" d="M63.6,14.3V9.6H51.3c0,0-6.1,0.6-6.3,6.1s0,17.2,0,17.2s0.9,4.8,6.3,5c5.4,0.2,12.4,0,12.4,0v-4.7h-12
						c0,0-1.9-0.4-2.1-3.2c-0.2-2.8,0-13.2,0-13.2s0-2.4,2.7-2.5C54.9,14.2,63.6,14.3,63.6,14.3z"/>
					<path class="st0" d="M75.4,33.1c0,0-2-0.3-2-1.8s0-2.9,0-2.9s17.3-7.7,18.1-8.1c0.7-0.4,0.2-5.3,0.2-5.3s-0.6-5.4-5.1-5.5
						s-12.3,0-12.3,0S69,9.7,69,17.4s-0.1,12.8,0,14.8c0.1,1.9,1.2,5.3,5.1,5.6c4.5,0.3,18.6,0.1,18.6,0.1v-4.7L75.4,33.1z
						 M73.6,16.1c0,0,0.2-1.6,2.4-1.7c2.1-0.1,10.2,0,10.8,0c0.7,0,1,2.6,0,3.1c-1.4,0.6-13.2,6-13.2,6V16.1z"/>
					<path class="st0" d="M98.4,38h4.7V16.3c0,0,0.3-1.7,2.1-1.7h2.8V10h-5.3c0,0-4.2-0.1-4.3,4.8C98.2,19.7,98.4,38,98.4,38z"/>
					<path class="st0" d="M112,38h4.7V16.5c0,0,0.2-1.8,1.8-1.8s10.5,0,10.5,0s1.8,0.7,1.6,2.3c-0.2,1.6,0,21.1,0,21.1h4.6V15.4
						c0,0,0.1-5.4-6.1-5.5c-6.2-0.1-12.1,0-12.1,0s-5.1,0.3-5.1,5.8C112,21.2,112,38,112,38z"/>
					<path class="st0" d="M165.3,32.3c0,0,0-13.1,0-17.2s-4.7-5.1-4.7-5.1h-19v4.4c0,0,12.6-0.1,15.8,0c3.2,0.1,3.1,1.4,3.1,1.4v3
						c0,0-8.2-0.2-13.7-0.1c-4.5,0.1-4.9,6.2-4.9,6.2s0,5.1,0,7.4c0,5.1,5.5,5.7,5.5,5.7s4.1,0,9.6,0
						C165.5,37.9,165.3,32.3,165.3,32.3z M158.5,33.3c-2.6,0-8.9,0-8.9,0s-3.3,0.6-3.2-3.1c0.1-3.9-0.9-7.2,2.6-7.2c0,0,7.7,0,9.2,0
						s2.4,0.1,2.4,2.3s0,6,0,6S161,33.4,158.5,33.3z"/>
				</g>
			</g>
			<g class="st1">
				<path class="st0" d="M170.1,8V2.9h-1.9V2.3h4.5v0.7h-1.9V8H170.1z"/>
				<path class="st0" d="M173.5,8V2.3h1.1l1.4,4.1c0.1,0.4,0.2,0.7,0.3,0.8c0.1-0.2,0.2-0.5,0.3-0.9l1.4-4h1V8h-0.7V3.2L176.6,8
					h-0.7l-1.7-4.9V8H173.5z"/>
			</g>
		</g>
	</g>
</g>
</svg>
